<svg xmlns="http://www.w3.org/2000/svg" viewBox="-97.2 -1343.8 1709.5 1709.5"><rect x="-97.2" y="-1343.8" width="1709.5" height="1709.5" rx="307.7" ry="307.7" fill="#ffffff"/><path d="M762 -880Q803 -944 871.5 -984.5Q940 -1025 1036 -1025Q1139 -1025 1223.5 -978.0Q1308 -931 1358.0 -850.5Q1408 -770 1408 -668Q1408 -575 1367.5 -503.5Q1327 -432 1274 -385Q1331 -360 1373.0 -306.0Q1415 -252 1415 -175Q1415 -82 1350.0 -17.0Q1285 48 1192 48Q1100 48 1034.5 -16.0Q969 -80 969 -176Q969 -184 969.5 -193.0Q970 -202 971 -210Q886 -166 795.5 -108.5Q705 -51 602.0 -8.5Q499 34 374 34Q305 34 242.5 7.5Q180 -19 140.0 -69.0Q100 -119 100 -192Q100 -271 144.0 -320.5Q188 -370 257.5 -393.5Q327 -417 402 -417Q523 -417 636.0 -402.5Q749 -388 854 -388Q954 -388 1049.0 -416.0Q1144 -444 1206.0 -505.5Q1268 -567 1268 -668Q1268 -761 1199.5 -823.0Q1131 -885 1036 -885Q939 -885 891.5 -823.0Q844 -761 842 -667V-496Q841 -468 820.0 -448.0Q799 -428 770 -428Q741 -428 721.0 -448.5Q701 -469 701 -498V-667Q702 -728 669.5 -777.0Q637 -826 583.0 -855.5Q529 -885 464 -885Q420 -885 384 -872Q459 -857 512.0 -797.0Q565 -737 565 -648Q565 -553 501.5 -489.0Q438 -425 343 -425Q236 -425 170.5 -501.5Q105 -578 105 -682Q105 -780 153.0 -857.5Q201 -935 282.5 -980.5Q364 -1026 462 -1026Q562 -1026 636.5 -985.5Q711 -945 762 -880ZM339 -736Q302 -736 278.0 -712.0Q254 -688 254 -651Q254 -613 280.5 -587.0Q307 -561 343 -561Q378 -561 401.5 -586.0Q425 -611 425 -647Q425 -685 401.0 -710.5Q377 -736 339 -736ZM756 -250Q664 -256 578.0 -266.5Q492 -277 406 -277Q370 -277 331.5 -270.0Q293 -263 266.5 -245.0Q240 -227 240 -193Q240 -146 283.5 -126.0Q327 -106 376 -106Q483 -106 579.5 -155.0Q676 -204 756 -250ZM1191 -259Q1156 -259 1132.5 -235.0Q1109 -211 1109 -176Q1109 -140 1133.5 -116.0Q1158 -92 1192 -92Q1227 -92 1251.0 -116.0Q1275 -140 1275 -174Q1275 -209 1251.5 -234.0Q1228 -259 1191 -259Z" fill="#6d28d9"/></svg>