<svg xmlns="http://www.w3.org/2000/svg" viewBox="-164 -1664 1843 2578">
  <rect x="-164" y="-1664" width="1843" height="2578" fill="#ffffff"/>
  <path d="M762 -880Q803 -944 871.5 -984.5Q940 -1025 1036 -1025Q1139 -1025 1223.5 -978.0Q1308 -931 1358.0 -850.5Q1408 -770 1408 -668Q1408 -575 1367.5 -503.5Q1327 -432 1274 -385Q1331 -360 1373.0 -306.0Q1415 -252 1415 -175Q1415 -82 1350.0 -17.0Q1285 48 1192 48Q1100 48 1034.5 -16.0Q969 -80 969 -176Q969 -184 969.5 -193.0Q970 -202 971 -210Q886 -166 795.5 -108.5Q705 -51 602.0 -8.5Q499 34 374 34Q305 34 242.5 7.5Q180 -19 140.0 -69.0Q100 -119 100 -192Q100 -271 144.0 -320.5Q188 -370 257.5 -393.5Q327 -417 402 -417Q523 -417 636.0 -402.5Q749 -388 854 -388Q954 -388 1049.0 -416.0Q1144 -444 1206.0 -505.5Q1268 -567 1268 -668Q1268 -761 1199.5 -823.0Q1131 -885 1036 -885Q939 -885 891.5 -823.0Q844 -761 842 -667V-496Q841 -468 820.0 -448.0Q799 -428 770 -428Q741 -428 721.0 -448.5Q701 -469 701 -498V-667Q702 -728 669.5 -777.0Q637 -826 583.0 -855.5Q529 -885 464 -885Q420 -885 384 -872Q459 -857 512.0 -797.0Q565 -737 565 -648Q565 -553 501.5 -489.0Q438 -425 343 -425Q236 -425 170.5 -501.5Q105 -578 105 -682Q105 -780 153.0 -857.5Q201 -935 282.5 -980.5Q364 -1026 462 -1026Q562 -1026 636.5 -985.5Q711 -945 762 -880ZM339 -736Q302 -736 278.0 -712.0Q254 -688 254 -651Q254 -613 280.5 -587.0Q307 -561 343 -561Q378 -561 401.5 -586.0Q425 -611 425 -647Q425 -685 401.0 -710.5Q377 -736 339 -736ZM756 -250Q664 -256 578.0 -266.5Q492 -277 406 -277Q370 -277 331.5 -270.0Q293 -263 266.5 -245.0Q240 -227 240 -193Q240 -146 283.5 -126.0Q327 -106 376 -106Q483 -106 579.5 -155.0Q676 -204 756 -250ZM1191 -259Q1156 -259 1132.5 -235.0Q1109 -211 1109 -176Q1109 -140 1133.5 -116.0Q1158 -92 1192 -92Q1227 -92 1251.0 -116.0Q1275 -140 1275 -174Q1275 -209 1251.5 -234.0Q1228 -259 1191 -259Z" fill="#e5e0d8" stroke="none"/>
  <path d="M 269.6 -813.1 L 307.7 -826.8 L 358.8 -819.9 L 407.5 -804.8 L 445.0 -770.9 L 475.0 -728.4 L 492.4 -682.1 L 495.9 -631.2 L 481.9 -583.2 L 455.2 -540.8 L 416.8 -510.6 L 369.8 -494.2 L 322.1 -505.7 L 276.6 -525.8 L 245.4 -563.2 L 219.9 -606.1 L 194.9 -649.0 L 194.8 -700.9 L 198.5 -752.1 L 216.7 -800.0 L 248.2 -842.5 L 282.9 -882.2 L 323.1 -916.7 L 372.4 -931.7 L 423.2 -946.4 L 474.6 -952.9 L 528.9 -952.5 L 579.4 -932.7 L 631.6 -914.2 L 674.8 -880.6 L 715.2 -843.2 L 746.1 -798.6 L 766.0 -749.7 L 770.5 -695.6 L 771.5 -642.0 L 770.1 -586.6 L 770.4 -531.3 L 773.9 -584.8 L 769.7 -640.1 L 778.3 -693.8 L 785.5 -749.1 L 798.4 -803.0 L 827.2 -851.0 L 867.6 -891.6 L 913.1 -926.9 L 965.0 -949.0 L 1021.4 -950.3 L 1077.8 -946.8 L 1133.1 -940.3 L 1185.8 -923.9 L 1232.3 -894.0 L 1267.3 -852.3 L 1294.9 -806.5 L 1319.3 -760.1 L 1336.0 -710.5 L 1342.5 -657.8 L 1337.5 -603.4 L 1318.4 -552.3 L 1290.5 -504.3 L 1260.3 -458.9 L 1222.6 -419.3 L 1181.1 -384.3 L 1139.0 -351.9 L 1089.7 -331.0 L 1037.1 -320.5 L 983.8 -312.6 L 928.4 -310.5 L 873.7 -306.9 L 818.0 -307.2 L 762.7 -310.1 L 707.3 -311.1 L 652.5 -313.1 L 599.0 -319.9 L 545.5 -325.1 L 491.3 -325.2 L 438.8 -324.0 L 386.1 -326.6 L 333.8 -326.6 L 283.9 -314.3 L 239.2 -292.1 L 197.5 -262.5 L 174.7 -217.6 L 177.4 -168.3 L 203.6 -126.5 L 242.9 -95.3 L 287.1 -74.5 L 338.1 -70.9 L 389.3 -67.4 L 439.8 -70.0 L 491.5 -77.2 L 543.1 -87.3 L 594.4 -101.9 L 646.3 -113.9 L 698.2 -126.8 L 748.9 -145.4 L 798.7 -167.0 L 846.7 -196.6 L 898.4 -220.7 L 946.6 -245.3 L 996.6 -267.1 L 1045.7 -286.3 L 1096.3 -302.6 L 1146.5 -316.3 L 1197.9 -315.0 L 1244.4 -296.9 L 1284.7 -270.8 L 1307.8 -227.7 L 1322.1 -179.0 L 1317.4 -129.0 L 1294.0 -85.3 L 1255.8 -53.7 L 1209.0 -38.5 L 1159.5 -42.6 L 1114.9 -61.9 L 1081.4 -99.8 L 1061.0 -147.3 L 1053.5 -196.7 L 1066.0 -246.7 L 1104.1 -278.1 L 1123.9 -324.8" fill="none" stroke="#c0392b" stroke-width="26" stroke-linecap="round" stroke-linejoin="round"/>
</svg>
