<svg xmlns="http://www.w3.org/2000/svg" viewBox="-164 -1664 1843 2578">
  <rect x="-164" y="-1664" width="1843" height="2578" fill="#ffffff"/>
  <path d="M762 -880Q803 -944 871.5 -984.5Q940 -1025 1036 -1025Q1139 -1025 1223.5 -978.0Q1308 -931 1358.0 -850.5Q1408 -770 1408 -668Q1408 -575 1367.5 -503.5Q1327 -432 1274 -385Q1331 -360 1373.0 -306.0Q1415 -252 1415 -175Q1415 -82 1350.0 -17.0Q1285 48 1192 48Q1100 48 1034.5 -16.0Q969 -80 969 -176Q969 -184 969.5 -193.0Q970 -202 971 -210Q886 -166 795.5 -108.5Q705 -51 602.0 -8.5Q499 34 374 34Q305 34 242.5 7.5Q180 -19 140.0 -69.0Q100 -119 100 -192Q100 -271 144.0 -320.5Q188 -370 257.5 -393.5Q327 -417 402 -417Q523 -417 636.0 -402.5Q749 -388 854 -388Q954 -388 1049.0 -416.0Q1144 -444 1206.0 -505.5Q1268 -567 1268 -668Q1268 -761 1199.5 -823.0Q1131 -885 1036 -885Q939 -885 891.5 -823.0Q844 -761 842 -667V-496Q841 -468 820.0 -448.0Q799 -428 770 -428Q741 -428 721.0 -448.5Q701 -469 701 -498V-667Q702 -728 669.5 -777.0Q637 -826 583.0 -855.5Q529 -885 464 -885Q420 -885 384 -872Q459 -857 512.0 -797.0Q565 -737 565 -648Q565 -553 501.5 -489.0Q438 -425 343 -425Q236 -425 170.5 -501.5Q105 -578 105 -682Q105 -780 153.0 -857.5Q201 -935 282.5 -980.5Q364 -1026 462 -1026Q562 -1026 636.5 -985.5Q711 -945 762 -880ZM339 -736Q302 -736 278.0 -712.0Q254 -688 254 -651Q254 -613 280.5 -587.0Q307 -561 343 -561Q378 -561 401.5 -586.0Q425 -611 425 -647Q425 -685 401.0 -710.5Q377 -736 339 -736ZM756 -250Q664 -256 578.0 -266.5Q492 -277 406 -277Q370 -277 331.5 -270.0Q293 -263 266.5 -245.0Q240 -227 240 -193Q240 -146 283.5 -126.0Q327 -106 376 -106Q483 -106 579.5 -155.0Q676 -204 756 -250ZM1191 -259Q1156 -259 1132.5 -235.0Q1109 -211 1109 -176Q1109 -140 1133.5 -116.0Q1158 -92 1192 -92Q1227 -92 1251.0 -116.0Q1275 -140 1275 -174Q1275 -209 1251.5 -234.0Q1228 -259 1191 -259Z" fill="#e5e0d8" stroke="none"/>
  <path d="M 274 -820 C 272 -821 269 -820 269 -824 C 270 -827 270 -825 276 -828 C 282 -831 278 -829 285 -831 C 292 -833 287 -832 293 -833 C 299 -835 294 -834 300 -834 C 305 -835 301 -835 307 -835 C 312 -835 308 -835 313 -835 C 318 -835 314 -835 319 -834 C 324 -833 321 -833 326 -832 C 331 -830 326 -832 332 -831 C 339 -829 336 -830 342 -829 C 349 -827 343 -828 349 -827 C 355 -827 351 -827 357 -827 C 363 -828 358 -828 364 -829 C 369 -829 363 -829 370 -829 C 378 -829 373 -830 382 -828 C 391 -826 386 -826 393 -825 C 400 -823 393 -826 399 -824 C 406 -821 400 -823 408 -819 C 416 -815 412 -818 419 -814 C 426 -810 422 -813 427 -810 C 432 -806 426 -810 432 -806 C 437 -801 434 -805 441 -799 C 447 -793 443 -797 448 -791 C 454 -785 450 -790 455 -783 C 460 -777 456 -782 461 -775 C 466 -768 463 -774 468 -766 C 472 -758 469 -762 472 -755 C 476 -749 472 -755 477 -750 C 481 -745 479 -750 484 -743 C 489 -737 486 -740 489 -734 C 492 -728 488 -733 492 -728 C 496 -723 494 -727 498 -721 C 503 -715 500 -721 503 -713 C 505 -705 503 -709 505 -700 C 507 -691 506 -698 507 -690 C 508 -683 507 -687 508 -681 C 509 -675 509 -681 509 -675 C 510 -669 509 -674 509 -666 C 510 -657 509 -663 510 -654 C 511 -644 511 -649 511 -642 C 512 -635 511 -641 511 -635 C 511 -630 512 -636 511 -628 C 511 -620 512 -625 511 -615 C 509 -606 510 -613 508 -604 C 505 -596 507 -601 504 -593 C 501 -586 503 -591 500 -585 C 497 -579 499 -584 496 -579 C 494 -574 496 -578 493 -573 C 491 -568 493 -572 490 -567 C 488 -563 489 -566 487 -562 C 485 -558 488 -563 484 -557 C 481 -551 483 -553 478 -547 C 473 -541 475 -546 472 -541 C 468 -536 472 -539 468 -535 C 465 -531 468 -535 463 -531 C 459 -526 461 -528 456 -524 C 452 -519 455 -523 451 -520 C 448 -516 453 -519 447 -515 C 442 -510 444 -512 438 -509 C 433 -506 437 -509 433 -506 C 428 -504 431 -506 427 -503 C 423 -501 428 -503 422 -500 C 416 -497 420 -499 411 -497 C 402 -494 407 -496 399 -493 C 391 -490 398 -492 391 -490 C 385 -487 389 -489 383 -486 C 378 -484 383 -485 377 -484 C 370 -483 373 -484 367 -484 C 361 -484 366 -484 361 -484 C 355 -484 360 -484 354 -484 C 348 -484 352 -484 346 -485 C 340 -486 344 -485 339 -487 C 333 -488 337 -487 332 -489 C 327 -491 331 -490 326 -492 C 322 -495 326 -492 320 -495 C 314 -498 317 -497 310 -500 C 303 -502 310 -499 303 -502 C 295 -504 299 -503 292 -505 C 285 -508 290 -506 286 -507 C 281 -509 286 -507 280 -510 C 274 -513 276 -512 270 -516 C 264 -519 271 -514 265 -519 C 259 -523 262 -520 256 -527 C 250 -533 254 -528 249 -535 C 244 -542 247 -538 243 -544 C 239 -549 244 -542 239 -549 C 234 -555 236 -553 231 -560 C 226 -566 229 -560 226 -565 C 223 -570 226 -566 223 -572 C 220 -578 222 -574 219 -580 C 216 -586 218 -581 215 -587 C 212 -592 215 -589 212 -594 C 208 -599 212 -593 207 -599 C 203 -605 206 -600 200 -608 C 194 -616 197 -613 193 -619 C 188 -625 193 -617 189 -624 C 185 -630 186 -626 182 -634 C 178 -643 181 -636 179 -645 C 178 -654 178 -647 177 -657 C 176 -667 177 -661 177 -671 C 177 -680 177 -673 177 -681 C 177 -689 176 -683 177 -691 C 177 -699 177 -695 178 -701 C 179 -708 179 -702 179 -707 C 179 -712 179 -709 179 -714 C 179 -720 179 -714 180 -721 C 181 -729 181 -726 182 -734 C 183 -741 182 -733 182 -740 C 182 -748 182 -743 182 -752 C 183 -761 181 -754 184 -762 C 186 -771 185 -765 189 -773 C 192 -782 189 -775 193 -783 C 197 -791 195 -785 200 -794 C 204 -803 200 -799 204 -805 C 207 -812 205 -806 208 -810 C 212 -814 208 -810 213 -815 C 217 -821 215 -819 220 -825 C 225 -831 222 -826 226 -831 C 229 -835 225 -830 230 -836 C 234 -841 232 -839 237 -845 C 241 -850 236 -844 241 -850 C 245 -856 243 -854 248 -860 C 253 -865 248 -860 253 -864 C 257 -868 254 -865 259 -869 C 264 -874 261 -871 265 -875 C 270 -879 265 -874 270 -879 C 275 -884 271 -881 277 -887 C 283 -893 279 -889 285 -895 C 292 -901 287 -897 293 -903 C 299 -908 294 -904 301 -908 C 307 -913 302 -909 310 -914 C 318 -919 312 -916 321 -920 C 330 -924 325 -922 332 -925 C 340 -928 333 -926 340 -927 C 347 -928 341 -926 350 -928 C 359 -929 356 -929 364 -931 C 371 -933 364 -932 369 -933 C 374 -935 371 -933 377 -935 C 382 -936 378 -935 384 -936 C 390 -938 385 -937 391 -938 C 397 -940 393 -939 399 -940 C 404 -941 398 -940 405 -942 C 412 -944 409 -943 416 -945 C 424 -947 417 -945 424 -947 C 432 -949 426 -948 434 -949 C 442 -951 436 -950 444 -951 C 452 -952 445 -951 453 -951 C 461 -951 457 -951 464 -951 C 471 -951 465 -950 471 -951 C 477 -952 472 -951 479 -953 C 486 -954 481 -954 488 -954 C 496 -955 491 -954 498 -954 C 506 -954 500 -954 508 -954 C 516 -954 510 -955 518 -954 C 526 -953 520 -954 528 -952 C 535 -950 528 -951 537 -949 C 547 -947 541 -950 550 -948 C 560 -946 553 -947 561 -943 C 569 -940 562 -942 570 -938 C 578 -934 573 -937 581 -933 C 589 -929 584 -931 590 -928 C 595 -925 588 -927 595 -925 C 602 -923 600 -925 607 -923 C 614 -921 607 -923 613 -920 C 619 -918 615 -920 623 -917 C 631 -915 626 -917 633 -914 C 640 -910 635 -913 641 -909 C 648 -905 643 -909 648 -904 C 653 -899 649 -902 655 -896 C 660 -891 655 -896 661 -891 C 667 -886 664 -890 670 -884 C 676 -879 671 -883 676 -878 C 682 -873 677 -877 684 -871 C 690 -866 687 -869 692 -863 C 698 -857 692 -862 698 -856 C 703 -851 700 -854 706 -849 C 712 -844 707 -849 712 -844 C 717 -839 713 -843 718 -837 C 723 -830 720 -834 724 -829 C 729 -823 726 -828 729 -822 C 733 -816 730 -819 734 -813 C 738 -807 736 -812 740 -807 C 743 -802 739 -807 742 -801 C 746 -795 744 -799 748 -793 C 752 -786 748 -792 752 -785 C 756 -778 754 -783 758 -775 C 761 -766 758 -770 760 -764 C 761 -757 761 -765 762 -758 C 763 -752 762 -756 763 -748 C 764 -740 764 -746 765 -738 C 766 -731 766 -735 766 -728 C 767 -721 766 -726 766 -720 C 767 -715 767 -719 767 -714 C 768 -709 767 -715 767 -707 C 767 -700 767 -705 767 -695 C 767 -686 766 -691 767 -683 C 768 -676 769 -682 769 -676 C 770 -670 769 -674 769 -668 C 769 -661 769 -668 769 -660 C 769 -652 769 -657 769 -647 C 769 -638 769 -646 769 -637 C 769 -627 769 -632 769 -625 C 769 -617 769 -623 769 -617 C 769 -611 769 -617 769 -611 C 769 -604 769 -608 769 -600 C 770 -591 770 -597 771 -589 C 771 -580 770 -587 771 -578 C 771 -569 771 -576 772 -566 C 772 -556 772 -563 773 -554 C 773 -545 772 -551 773 -544 C 774 -538 774 -543 775 -538 C 776 -533 774 -531 775 -531 C 776 -531 776 -533 777 -538 C 778 -543 778 -538 778 -544 C 779 -550 778 -546 778 -553 C 778 -561 777 -556 778 -563 C 779 -570 779 -565 780 -572 C 782 -579 780 -573 781 -581 C 782 -589 782 -584 782 -591 C 783 -599 782 -593 782 -600 C 782 -607 782 -602 782 -609 C 782 -615 783 -610 782 -616 C 782 -621 783 -616 782 -622 C 781 -628 781 -624 780 -631 C 780 -639 780 -634 780 -641 C 780 -647 780 -643 780 -648 C 780 -654 779 -647 780 -654 C 782 -662 781 -659 784 -668 C 786 -676 784 -670 786 -675 C 787 -681 785 -675 787 -681 C 789 -688 787 -683 790 -691 C 793 -699 792 -692 793 -700 C 795 -708 793 -702 794 -711 C 796 -720 795 -714 796 -723 C 797 -732 797 -724 798 -733 C 799 -743 798 -737 799 -746 C 799 -755 798 -748 799 -756 C 801 -764 800 -760 802 -766 C 804 -773 803 -766 804 -773 C 805 -779 803 -776 805 -783 C 807 -790 806 -784 808 -790 C 811 -797 808 -792 812 -799 C 815 -806 814 -802 817 -808 C 821 -814 817 -808 820 -814 C 823 -820 822 -816 825 -823 C 828 -829 825 -824 828 -830 C 831 -835 829 -831 832 -836 C 836 -841 832 -837 837 -842 C 841 -847 838 -843 843 -847 C 848 -852 844 -848 849 -853 C 853 -859 850 -855 855 -861 C 860 -867 856 -862 861 -868 C 865 -873 861 -869 866 -875 C 871 -880 867 -876 872 -881 C 878 -885 874 -881 880 -885 C 886 -890 882 -887 888 -891 C 893 -896 888 -892 894 -897 C 899 -902 895 -899 902 -904 C 908 -910 904 -907 910 -912 C 917 -916 912 -912 918 -916 C 924 -920 920 -918 926 -921 C 932 -925 927 -921 933 -925 C 940 -929 936 -927 942 -931 C 949 -934 943 -932 949 -935 C 956 -938 952 -937 958 -938 C 965 -940 960 -938 966 -939 C 972 -939 967 -939 973 -940 C 980 -941 975 -940 982 -941 C 989 -942 984 -941 991 -942 C 998 -942 993 -943 999 -942 C 1006 -942 1001 -942 1007 -941 C 1014 -941 1010 -941 1016 -941 C 1021 -941 1016 -941 1022 -941 C 1028 -941 1023 -942 1030 -941 C 1037 -941 1032 -941 1039 -940 C 1047 -940 1041 -940 1048 -940 C 1056 -940 1050 -940 1058 -940 C 1067 -940 1061 -941 1069 -940 C 1077 -940 1071 -940 1078 -939 C 1084 -938 1078 -938 1085 -937 C 1092 -936 1088 -937 1096 -937 C 1103 -937 1097 -937 1103 -937 C 1110 -937 1105 -937 1112 -936 C 1119 -935 1114 -935 1121 -935 C 1127 -934 1122 -936 1128 -935 C 1134 -933 1130 -934 1136 -932 C 1142 -929 1137 -930 1144 -929 C 1150 -927 1147 -929 1153 -927 C 1159 -926 1153 -927 1159 -925 C 1165 -924 1161 -926 1169 -924 C 1176 -922 1171 -923 1177 -921 C 1184 -918 1179 -920 1185 -917 C 1190 -914 1186 -917 1191 -913 C 1196 -910 1191 -913 1197 -909 C 1202 -905 1198 -908 1204 -903 C 1211 -899 1207 -901 1214 -898 C 1220 -895 1215 -898 1219 -896 C 1224 -893 1220 -895 1226 -891 C 1232 -888 1229 -891 1235 -887 C 1240 -883 1235 -886 1239 -882 C 1243 -877 1240 -881 1244 -875 C 1249 -870 1246 -873 1251 -868 C 1256 -862 1253 -867 1257 -862 C 1262 -857 1259 -861 1263 -855 C 1266 -850 1263 -854 1266 -849 C 1269 -844 1266 -847 1270 -843 C 1275 -838 1273 -843 1277 -838 C 1281 -833 1278 -836 1281 -830 C 1285 -824 1282 -829 1286 -823 C 1290 -817 1288 -821 1291 -815 C 1294 -809 1291 -813 1294 -808 C 1296 -802 1294 -807 1297 -801 C 1299 -796 1297 -799 1301 -794 C 1305 -789 1303 -793 1306 -788 C 1310 -784 1307 -788 1310 -783 C 1312 -777 1309 -780 1312 -774 C 1314 -769 1313 -774 1316 -768 C 1319 -763 1318 -768 1320 -761 C 1323 -755 1320 -760 1321 -753 C 1323 -745 1320 -753 1324 -743 C 1327 -734 1327 -737 1330 -729 C 1334 -720 1330 -727 1332 -722 C 1334 -717 1333 -721 1336 -716 C 1338 -710 1337 -715 1339 -709 C 1341 -702 1339 -704 1341 -698 C 1343 -692 1343 -698 1344 -693 C 1346 -688 1344 -692 1344 -686 C 1345 -681 1344 -686 1345 -680 C 1346 -674 1346 -678 1346 -671 C 1347 -665 1347 -669 1347 -664 C 1348 -658 1347 -664 1347 -657 C 1348 -650 1347 -654 1347 -647 C 1347 -639 1347 -645 1347 -638 C 1347 -630 1347 -635 1347 -628 C 1347 -622 1348 -629 1347 -622 C 1347 -614 1347 -619 1345 -611 C 1344 -602 1345 -606 1344 -600 C 1342 -593 1343 -600 1341 -594 C 1339 -589 1341 -592 1339 -586 C 1338 -579 1339 -585 1337 -578 C 1335 -572 1337 -575 1334 -569 C 1331 -564 1333 -568 1331 -564 C 1329 -559 1331 -563 1329 -558 C 1328 -553 1329 -558 1327 -551 C 1324 -544 1326 -549 1323 -541 C 1320 -532 1323 -538 1319 -531 C 1315 -523 1318 -529 1313 -522 C 1308 -515 1310 -519 1306 -513 C 1301 -508 1305 -512 1302 -508 C 1299 -504 1301 -506 1298 -503 C 1295 -499 1297 -502 1294 -498 C 1291 -494 1294 -498 1291 -493 C 1288 -488 1290 -491 1287 -486 C 1283 -481 1286 -484 1282 -480 C 1278 -475 1280 -479 1276 -474 C 1273 -470 1277 -475 1273 -469 C 1268 -463 1272 -467 1266 -460 C 1260 -453 1264 -458 1258 -452 C 1252 -446 1258 -451 1251 -445 C 1244 -439 1248 -443 1242 -437 C 1235 -432 1240 -436 1235 -431 C 1230 -426 1234 -429 1228 -425 C 1223 -420 1226 -423 1221 -419 C 1216 -415 1221 -419 1216 -415 C 1210 -411 1214 -413 1207 -409 C 1201 -405 1206 -409 1199 -404 C 1191 -399 1195 -402 1189 -396 C 1182 -391 1190 -396 1183 -391 C 1176 -386 1178 -388 1172 -384 C 1166 -379 1172 -383 1167 -380 C 1162 -376 1164 -379 1160 -376 C 1155 -372 1161 -375 1156 -371 C 1150 -367 1152 -369 1146 -365 C 1140 -361 1147 -366 1141 -362 C 1135 -358 1137 -359 1131 -355 C 1125 -351 1131 -355 1125 -352 C 1120 -350 1124 -352 1117 -350 C 1110 -347 1115 -349 1107 -346 C 1100 -344 1106 -346 1098 -344 C 1090 -343 1096 -344 1087 -342 C 1078 -341 1084 -342 1076 -340 C 1068 -339 1075 -340 1067 -339 C 1059 -337 1063 -338 1056 -337 C 1049 -335 1056 -336 1050 -336 C 1043 -335 1046 -335 1039 -335 C 1031 -334 1039 -335 1031 -334 C 1024 -332 1027 -333 1020 -331 C 1013 -330 1019 -331 1014 -330 C 1009 -329 1014 -330 1007 -329 C 1000 -328 1003 -329 997 -328 C 990 -327 998 -327 991 -327 C 984 -326 988 -327 979 -327 C 969 -327 974 -327 967 -327 C 960 -327 968 -327 960 -327 C 953 -327 958 -327 949 -327 C 940 -326 945 -326 938 -326 C 930 -325 938 -326 931 -326 C 924 -325 930 -325 919 -325 C 908 -324 912 -325 903 -325 C 895 -324 903 -324 897 -324 C 892 -323 898 -325 890 -324 C 881 -323 884 -322 876 -322 C 868 -321 875 -322 869 -322 C 864 -322 868 -322 863 -322 C 857 -322 860 -322 855 -322 C 850 -322 855 -322 849 -322 C 843 -322 847 -322 841 -322 C 835 -322 839 -321 833 -322 C 827 -322 832 -322 826 -322 C 820 -322 825 -322 818 -322 C 812 -322 818 -322 810 -323 C 801 -324 805 -323 796 -324 C 788 -325 795 -325 788 -325 C 782 -325 786 -325 780 -325 C 773 -325 778 -325 772 -325 C 765 -325 769 -325 763 -325 C 757 -325 762 -325 756 -325 C 751 -325 755 -325 750 -325 C 744 -325 749 -325 743 -325 C 737 -325 741 -325 735 -325 C 729 -325 734 -324 728 -325 C 722 -325 729 -325 720 -326 C 712 -326 716 -326 707 -326 C 698 -327 707 -326 699 -326 C 691 -327 695 -327 687 -327 C 680 -327 688 -327 680 -327 C 671 -327 677 -327 666 -327 C 655 -328 661 -328 652 -328 C 644 -328 651 -328 645 -328 C 640 -328 644 -328 639 -329 C 633 -329 639 -328 631 -329 C 623 -330 626 -330 619 -331 C 612 -332 618 -331 613 -333 C 608 -334 611 -333 606 -334 C 601 -335 605 -334 599 -335 C 594 -335 601 -335 593 -336 C 585 -336 588 -336 580 -337 C 572 -337 579 -337 574 -337 C 568 -338 573 -338 567 -338 C 562 -339 566 -338 560 -339 C 554 -339 558 -339 552 -339 C 547 -340 551 -340 545 -340 C 540 -340 544 -340 539 -340 C 533 -340 537 -340 531 -340 C 525 -340 530 -340 523 -340 C 517 -340 522 -340 516 -340 C 510 -340 515 -340 509 -340 C 503 -340 507 -340 501 -340 C 496 -340 500 -340 494 -340 C 489 -340 493 -340 487 -340 C 481 -340 485 -340 479 -340 C 473 -340 478 -341 472 -340 C 466 -339 471 -339 463 -338 C 456 -337 459 -338 452 -338 C 445 -338 453 -337 446 -338 C 439 -338 444 -338 434 -339 C 425 -340 431 -339 422 -339 C 413 -340 419 -339 411 -339 C 403 -339 408 -339 402 -339 C 396 -339 402 -339 395 -339 C 389 -340 393 -340 386 -340 C 379 -341 386 -341 377 -341 C 369 -341 375 -341 366 -341 C 356 -341 362 -341 354 -341 C 345 -341 352 -341 344 -341 C 336 -341 342 -341 333 -340 C 325 -339 331 -340 323 -338 C 315 -336 321 -337 313 -336 C 305 -334 310 -335 304 -333 C 298 -332 304 -333 298 -331 C 291 -329 295 -330 287 -328 C 280 -326 286 -328 279 -326 C 271 -324 275 -326 269 -322 C 262 -319 269 -321 262 -317 C 256 -313 260 -315 253 -313 C 246 -310 250 -313 245 -310 C 240 -308 245 -309 241 -306 C 236 -304 239 -306 235 -304 C 230 -302 234 -304 229 -301 C 224 -298 229 -300 223 -297 C 217 -293 221 -296 215 -292 C 208 -288 212 -291 206 -287 C 199 -282 204 -286 198 -281 C 193 -276 197 -279 191 -274 C 185 -268 189 -272 183 -267 C 178 -262 181 -266 178 -261 C 174 -255 177 -259 175 -254 C 173 -249 174 -252 172 -247 C 169 -242 171 -246 169 -242 C 167 -237 169 -242 167 -236 C 165 -230 167 -234 164 -227 C 161 -220 163 -226 160 -219 C 158 -212 159 -217 158 -210 C 157 -203 158 -208 158 -202 C 157 -196 157 -201 157 -195 C 156 -189 155 -194 157 -187 C 158 -181 158 -186 160 -179 C 162 -172 160 -177 162 -170 C 164 -164 162 -169 164 -163 C 166 -158 165 -163 168 -157 C 170 -150 168 -153 171 -147 C 173 -141 171 -146 174 -142 C 177 -137 175 -140 177 -135 C 180 -130 176 -135 180 -130 C 185 -125 183 -128 188 -123 C 193 -119 188 -123 192 -119 C 197 -115 194 -117 199 -113 C 204 -109 200 -113 206 -109 C 211 -105 207 -107 212 -103 C 217 -98 213 -101 218 -98 C 223 -94 219 -97 224 -94 C 228 -91 225 -93 229 -89 C 233 -86 230 -89 234 -85 C 238 -81 235 -83 239 -79 C 243 -74 239 -77 243 -74 C 248 -72 245 -74 251 -72 C 256 -70 251 -71 258 -69 C 264 -67 260 -68 267 -67 C 275 -65 269 -66 277 -64 C 285 -63 280 -65 288 -63 C 296 -62 290 -62 298 -61 C 305 -60 300 -61 306 -61 C 313 -61 308 -62 314 -61 C 321 -61 316 -61 323 -60 C 329 -59 324 -60 330 -59 C 337 -58 332 -59 339 -58 C 345 -57 340 -58 346 -57 C 353 -56 348 -56 356 -56 C 365 -55 359 -56 368 -56 C 376 -55 369 -56 377 -55 C 384 -54 379 -55 387 -54 C 394 -52 388 -53 395 -51 C 403 -50 397 -50 406 -50 C 415 -51 409 -51 418 -53 C 427 -54 422 -53 429 -54 C 436 -55 431 -55 437 -56 C 442 -56 436 -56 443 -56 C 450 -57 446 -56 455 -57 C 465 -59 457 -58 467 -59 C 477 -60 470 -59 479 -61 C 488 -62 482 -61 489 -62 C 495 -63 488 -62 495 -63 C 502 -65 497 -63 507 -66 C 516 -68 511 -67 520 -69 C 528 -71 522 -70 528 -70 C 534 -71 528 -70 535 -71 C 542 -72 538 -72 545 -73 C 552 -74 546 -73 551 -74 C 557 -76 553 -75 559 -76 C 565 -78 559 -76 566 -78 C 574 -79 569 -78 578 -80 C 587 -82 580 -80 589 -83 C 598 -86 590 -84 600 -88 C 610 -91 605 -89 613 -91 C 621 -93 614 -91 620 -92 C 627 -93 621 -92 629 -94 C 637 -96 633 -95 640 -96 C 648 -98 643 -96 648 -98 C 654 -100 648 -99 655 -101 C 662 -103 659 -102 666 -104 C 673 -105 665 -103 672 -105 C 678 -107 675 -106 682 -108 C 689 -110 683 -108 689 -109 C 695 -111 691 -110 696 -111 C 702 -113 697 -112 703 -113 C 709 -115 704 -113 711 -115 C 719 -117 715 -117 722 -119 C 729 -122 724 -120 729 -121 C 734 -123 730 -121 735 -124 C 740 -126 736 -124 742 -127 C 748 -129 742 -127 750 -130 C 758 -133 752 -131 762 -134 C 772 -137 766 -135 774 -138 C 782 -142 776 -139 782 -142 C 788 -145 784 -143 789 -146 C 794 -149 789 -148 795 -150 C 800 -152 795 -149 802 -152 C 809 -155 806 -153 813 -157 C 820 -161 814 -158 819 -162 C 824 -165 820 -163 825 -167 C 831 -170 827 -167 832 -171 C 838 -174 834 -172 839 -175 C 845 -178 841 -176 845 -178 C 849 -181 846 -179 850 -182 C 855 -184 851 -183 857 -185 C 862 -188 859 -186 864 -188 C 868 -191 864 -189 869 -191 C 874 -194 870 -192 875 -194 C 881 -197 878 -195 883 -198 C 888 -200 884 -199 889 -201 C 893 -204 887 -200 895 -204 C 903 -208 900 -207 908 -211 C 915 -215 909 -212 914 -214 C 919 -217 915 -215 920 -218 C 924 -220 921 -218 925 -221 C 930 -224 925 -221 930 -225 C 936 -230 933 -228 939 -233 C 945 -237 940 -234 946 -236 C 951 -238 945 -235 952 -238 C 960 -242 956 -240 964 -244 C 972 -248 965 -244 973 -248 C 981 -251 976 -249 984 -253 C 993 -258 988 -256 994 -260 C 1000 -264 995 -261 1000 -263 C 1005 -265 1000 -262 1006 -265 C 1012 -268 1008 -266 1016 -271 C 1023 -275 1017 -272 1025 -276 C 1033 -279 1027 -276 1035 -280 C 1043 -283 1036 -281 1045 -284 C 1053 -287 1049 -285 1056 -288 C 1062 -290 1055 -288 1061 -290 C 1068 -292 1064 -291 1072 -294 C 1080 -297 1075 -295 1082 -298 C 1089 -301 1084 -299 1091 -302 C 1097 -305 1092 -302 1099 -305 C 1105 -307 1099 -305 1107 -308 C 1115 -312 1110 -310 1118 -312 C 1126 -314 1121 -312 1127 -314 C 1132 -316 1127 -315 1132 -318 C 1137 -320 1132 -319 1139 -320 C 1145 -322 1141 -321 1148 -321 C 1154 -321 1150 -321 1155 -322 C 1160 -322 1155 -322 1161 -322 C 1168 -322 1164 -322 1170 -322 C 1176 -322 1171 -322 1177 -322 C 1183 -322 1179 -322 1185 -322 C 1191 -322 1187 -322 1192 -322 C 1197 -322 1193 -322 1198 -322 C 1204 -322 1200 -323 1206 -322 C 1212 -321 1208 -322 1214 -320 C 1219 -318 1214 -318 1219 -317 C 1224 -315 1220 -317 1226 -316 C 1232 -314 1228 -315 1233 -313 C 1239 -312 1234 -313 1240 -312 C 1245 -311 1241 -313 1246 -311 C 1251 -309 1246 -310 1252 -307 C 1258 -304 1255 -306 1261 -304 C 1268 -301 1262 -303 1268 -300 C 1274 -297 1271 -299 1276 -296 C 1282 -293 1279 -296 1282 -293 C 1285 -289 1281 -291 1284 -287 C 1287 -283 1284 -286 1289 -282 C 1295 -278 1292 -281 1297 -278 C 1302 -275 1298 -278 1302 -274 C 1307 -270 1306 -273 1309 -267 C 1312 -262 1309 -266 1311 -261 C 1312 -255 1310 -260 1312 -253 C 1315 -247 1314 -251 1317 -245 C 1319 -239 1317 -244 1319 -239 C 1321 -234 1319 -238 1322 -233 C 1325 -227 1323 -231 1325 -225 C 1328 -219 1325 -224 1328 -218 C 1332 -212 1331 -215 1333 -209 C 1335 -203 1333 -209 1334 -203 C 1335 -197 1335 -201 1336 -194 C 1337 -188 1337 -193 1337 -187 C 1338 -181 1337 -186 1337 -179 C 1338 -173 1338 -177 1338 -171 C 1339 -164 1339 -169 1338 -163 C 1338 -156 1339 -161 1337 -154 C 1336 -147 1336 -151 1335 -144 C 1333 -137 1334 -143 1333 -137 C 1332 -131 1333 -135 1332 -129 C 1330 -123 1332 -127 1330 -121 C 1328 -116 1330 -121 1327 -115 C 1324 -109 1325 -112 1323 -106 C 1320 -100 1323 -105 1321 -100 C 1319 -95 1320 -99 1317 -93 C 1313 -88 1316 -91 1312 -86 C 1307 -80 1310 -85 1305 -79 C 1300 -73 1304 -76 1299 -72 C 1294 -67 1298 -71 1293 -67 C 1288 -63 1293 -66 1287 -62 C 1281 -57 1284 -61 1278 -56 C 1272 -51 1276 -54 1271 -50 C 1266 -46 1270 -50 1265 -47 C 1260 -43 1263 -46 1257 -42 C 1251 -39 1257 -41 1250 -38 C 1242 -35 1247 -36 1239 -35 C 1231 -33 1238 -35 1231 -33 C 1223 -32 1228 -33 1221 -31 C 1214 -30 1220 -30 1213 -29 C 1206 -28 1212 -29 1204 -29 C 1197 -29 1202 -29 1194 -29 C 1186 -29 1192 -29 1185 -29 C 1177 -30 1182 -30 1176 -30 C 1169 -31 1174 -30 1168 -31 C 1162 -31 1167 -30 1161 -32 C 1154 -33 1158 -33 1151 -35 C 1145 -37 1151 -35 1144 -36 C 1137 -38 1141 -37 1134 -38 C 1127 -40 1132 -38 1126 -41 C 1119 -43 1124 -41 1118 -46 C 1111 -50 1115 -47 1110 -51 C 1104 -56 1109 -53 1105 -57 C 1101 -62 1103 -59 1099 -63 C 1095 -67 1098 -64 1094 -68 C 1090 -71 1093 -67 1088 -72 C 1084 -77 1088 -75 1083 -80 C 1077 -85 1080 -81 1075 -86 C 1069 -91 1073 -88 1069 -93 C 1065 -98 1068 -94 1064 -99 C 1060 -104 1062 -99 1059 -105 C 1056 -111 1058 -107 1056 -113 C 1054 -118 1056 -114 1055 -119 C 1053 -124 1054 -120 1052 -126 C 1050 -131 1052 -126 1050 -132 C 1048 -137 1049 -133 1047 -140 C 1045 -146 1047 -142 1044 -147 C 1042 -153 1043 -148 1042 -154 C 1040 -161 1041 -156 1041 -163 C 1040 -169 1041 -164 1041 -170 C 1040 -176 1040 -171 1040 -177 C 1040 -183 1040 -179 1039 -185 C 1039 -191 1039 -187 1039 -193 C 1039 -200 1038 -194 1039 -201 C 1041 -208 1041 -203 1043 -210 C 1044 -218 1042 -213 1043 -220 C 1044 -226 1043 -222 1045 -227 C 1047 -232 1045 -228 1047 -233 C 1050 -238 1049 -234 1051 -240 C 1054 -245 1051 -241 1054 -247 C 1056 -254 1054 -250 1058 -257 C 1062 -263 1059 -260 1064 -264 C 1070 -269 1064 -264 1072 -268 C 1080 -271 1076 -269 1084 -273 C 1092 -276 1086 -273 1092 -277 C 1097 -280 1093 -277 1098 -281 C 1104 -286 1101 -282 1106 -288 C 1110 -294 1106 -288 1110 -296 C 1113 -304 1112 -297 1114 -309 C 1117 -320 1116 -318 1116 -325" fill="none" stroke="#c0392b" stroke-width="26" stroke-linecap="round" stroke-linejoin="round"/>
</svg>
