<svg xmlns="http://www.w3.org/2000/svg" viewBox="-164 -1664 1843 2578">
  <rect x="-164" y="-1664" width="1843" height="2578" fill="#ffffff"/>
  <path d="M762 -880Q803 -944 871.5 -984.5Q940 -1025 1036 -1025Q1139 -1025 1223.5 -978.0Q1308 -931 1358.0 -850.5Q1408 -770 1408 -668Q1408 -575 1367.5 -503.5Q1327 -432 1274 -385Q1331 -360 1373.0 -306.0Q1415 -252 1415 -175Q1415 -82 1350.0 -17.0Q1285 48 1192 48Q1100 48 1034.5 -16.0Q969 -80 969 -176Q969 -184 969.5 -193.0Q970 -202 971 -210Q886 -166 795.5 -108.5Q705 -51 602.0 -8.5Q499 34 374 34Q305 34 242.5 7.5Q180 -19 140.0 -69.0Q100 -119 100 -192Q100 -271 144.0 -320.5Q188 -370 257.5 -393.5Q327 -417 402 -417Q523 -417 636.0 -402.5Q749 -388 854 -388Q954 -388 1049.0 -416.0Q1144 -444 1206.0 -505.5Q1268 -567 1268 -668Q1268 -761 1199.5 -823.0Q1131 -885 1036 -885Q939 -885 891.5 -823.0Q844 -761 842 -667V-496Q841 -468 820.0 -448.0Q799 -428 770 -428Q741 -428 721.0 -448.5Q701 -469 701 -498V-667Q702 -728 669.5 -777.0Q637 -826 583.0 -855.5Q529 -885 464 -885Q420 -885 384 -872Q459 -857 512.0 -797.0Q565 -737 565 -648Q565 -553 501.5 -489.0Q438 -425 343 -425Q236 -425 170.5 -501.5Q105 -578 105 -682Q105 -780 153.0 -857.5Q201 -935 282.5 -980.5Q364 -1026 462 -1026Q562 -1026 636.5 -985.5Q711 -945 762 -880ZM339 -736Q302 -736 278.0 -712.0Q254 -688 254 -651Q254 -613 280.5 -587.0Q307 -561 343 -561Q378 -561 401.5 -586.0Q425 -611 425 -647Q425 -685 401.0 -710.5Q377 -736 339 -736ZM756 -250Q664 -256 578.0 -266.5Q492 -277 406 -277Q370 -277 331.5 -270.0Q293 -263 266.5 -245.0Q240 -227 240 -193Q240 -146 283.5 -126.0Q327 -106 376 -106Q483 -106 579.5 -155.0Q676 -204 756 -250ZM1191 -259Q1156 -259 1132.5 -235.0Q1109 -211 1109 -176Q1109 -140 1133.5 -116.0Q1158 -92 1192 -92Q1227 -92 1251.0 -116.0Q1275 -140 1275 -174Q1275 -209 1251.5 -234.0Q1228 -259 1191 -259Z" fill="#e5e0d8" stroke="none"/>
  <path d="M 269.6 -813.1 L 407.5 -804.8 C 435.8 -763.9 484.4 -726.1 492.4 -682.1 C 500.3 -638.1 475.7 -572.1 455.2 -540.8 C 434.8 -509.5 398.3 -509.7 369.8 -494.2 C 328.3 -517.2 274.5 -537.4 245.4 -563.2 C 216.2 -589.0 202.7 -617.5 194.9 -649.0 C 187.1 -680.5 183.9 -713.2 198.5 -752.1 C 213.2 -791.0 245.4 -849.9 282.9 -882.2 C 320.3 -914.6 382.2 -934.7 423.2 -946.4 C 464.1 -958.1 480.2 -969.7 528.9 -952.5 C 577.5 -935.3 675.7 -877.0 715.2 -843.2 C 754.7 -809.4 756.8 -801.6 766.0 -749.7 C 775.2 -697.7 769.0 -604.1 770.4 -531.3 C 779.7 -621.9 782.2 -743.0 798.4 -803.0 C 814.6 -863.1 839.9 -867.3 867.6 -891.6 C 895.4 -915.9 920.7 -940.9 965.0 -949.0 C 1009.2 -957.1 1088.5 -949.4 1133.1 -940.3 C 1177.6 -931.1 1201.3 -924.1 1232.3 -894.0 C 1263.4 -864.0 1300.9 -799.5 1319.3 -760.1 C 1337.6 -720.7 1352.3 -708.0 1342.5 -657.8 C 1332.7 -607.6 1294.2 -509.8 1260.3 -458.9 C 1226.4 -407.9 1203.5 -377.2 1139.0 -351.9 C 1074.6 -326.6 1016.2 -313.1 873.7 -306.9 C 731.2 -300.6 400.4 -329.2 283.9 -314.3 C 167.4 -299.4 211.1 -249.8 174.7 -217.6 C 175.6 -201.2 166.0 -188.7 177.4 -168.3 C 188.8 -147.9 207.6 -112.1 242.9 -95.3 C 278.2 -78.5 339.3 -68.7 389.3 -67.4 C 439.3 -66.1 483.2 -74.3 543.1 -87.3 C 603.0 -100.4 665.1 -112.3 748.9 -145.4 C 832.7 -178.6 970.9 -258.1 1045.7 -286.3 C 1120.6 -314.6 1158.0 -317.6 1197.9 -315.0 C 1237.7 -312.5 1264.0 -293.5 1284.7 -270.8 C 1305.4 -248.2 1320.6 -210.0 1322.1 -179.0 C 1323.7 -148.1 1312.9 -108.7 1294.0 -85.3 C 1275.1 -61.9 1238.8 -42.4 1209.0 -38.5 C 1179.1 -34.6 1139.6 -43.8 1114.9 -61.9 C 1090.2 -80.0 1069.1 -116.5 1061.0 -147.3 C 1052.8 -178.1 1055.5 -217.1 1066.0 -246.7 C 1076.5 -276.3 1104.6 -298.8 1123.9 -324.8" fill="none" stroke="#c0392b" stroke-width="26" stroke-linecap="round" stroke-linejoin="round"/>
</svg>
