<svg xmlns="http://www.w3.org/2000/svg" viewBox="-164 -1664 1843 2578">
  <rect x="-164" y="-1664" width="1843" height="2578" fill="#ffffff"/>
  <path d="M762 -880Q803 -944 871.5 -984.5Q940 -1025 1036 -1025Q1139 -1025 1223.5 -978.0Q1308 -931 1358.0 -850.5Q1408 -770 1408 -668Q1408 -575 1367.5 -503.5Q1327 -432 1274 -385Q1331 -360 1373.0 -306.0Q1415 -252 1415 -175Q1415 -82 1350.0 -17.0Q1285 48 1192 48Q1100 48 1034.5 -16.0Q969 -80 969 -176Q969 -184 969.5 -193.0Q970 -202 971 -210Q886 -166 795.5 -108.5Q705 -51 602.0 -8.5Q499 34 374 34Q305 34 242.5 7.5Q180 -19 140.0 -69.0Q100 -119 100 -192Q100 -271 144.0 -320.5Q188 -370 257.5 -393.5Q327 -417 402 -417Q523 -417 636.0 -402.5Q749 -388 854 -388Q954 -388 1049.0 -416.0Q1144 -444 1206.0 -505.5Q1268 -567 1268 -668Q1268 -761 1199.5 -823.0Q1131 -885 1036 -885Q939 -885 891.5 -823.0Q844 -761 842 -667V-496Q841 -468 820.0 -448.0Q799 -428 770 -428Q741 -428 721.0 -448.5Q701 -469 701 -498V-667Q702 -728 669.5 -777.0Q637 -826 583.0 -855.5Q529 -885 464 -885Q420 -885 384 -872Q459 -857 512.0 -797.0Q565 -737 565 -648Q565 -553 501.5 -489.0Q438 -425 343 -425Q236 -425 170.5 -501.5Q105 -578 105 -682Q105 -780 153.0 -857.5Q201 -935 282.5 -980.5Q364 -1026 462 -1026Q562 -1026 636.5 -985.5Q711 -945 762 -880ZM339 -736Q302 -736 278.0 -712.0Q254 -688 254 -651Q254 -613 280.5 -587.0Q307 -561 343 -561Q378 -561 401.5 -586.0Q425 -611 425 -647Q425 -685 401.0 -710.5Q377 -736 339 -736ZM756 -250Q664 -256 578.0 -266.5Q492 -277 406 -277Q370 -277 331.5 -270.0Q293 -263 266.5 -245.0Q240 -227 240 -193Q240 -146 283.5 -126.0Q327 -106 376 -106Q483 -106 579.5 -155.0Q676 -204 756 -250ZM1191 -259Q1156 -259 1132.5 -235.0Q1109 -211 1109 -176Q1109 -140 1133.5 -116.0Q1158 -92 1192 -92Q1227 -92 1251.0 -116.0Q1275 -140 1275 -174Q1275 -209 1251.5 -234.0Q1228 -259 1191 -259Z" fill="#e5e0d8" stroke="none"/>
  <path d="M 269.6 -813.1 L 405.4 -826.2 C 433.7 -785.3 482.3 -747.5 490.3 -703.5 C 498.2 -659.5 473.6 -593.5 453.1 -562.2 C 432.7 -530.9 396.2 -531.1 367.7 -515.6 C 326.2 -538.6 272.4 -558.8 243.3 -584.6 C 214.1 -610.4 200.6 -638.9 192.8 -670.4 C 185.0 -701.9 181.8 -734.6 196.4 -773.5 C 211.1 -812.4 243.3 -871.3 280.8 -903.6 C 318.2 -936.0 380.1 -956.1 421.1 -967.8 C 462.0 -979.5 478.1 -991.1 526.8 -973.9 C 575.4 -956.7 673.6 -898.4 713.1 -864.6 C 752.6 -830.8 754.7 -823.0 763.9 -771.1 C 773.1 -719.1 766.9 -625.5 768.3 -552.7 C 777.6 -643.3 780.1 -764.4 796.3 -824.4 C 812.5 -884.5 837.8 -888.7 865.5 -913.0 C 893.3 -937.3 918.6 -962.3 962.9 -970.4 C 1007.1 -978.5 1086.4 -970.8 1131.0 -961.7 C 1175.5 -952.5 1199.2 -945.5 1230.2 -915.4 C 1261.3 -885.4 1298.8 -820.9 1317.2 -781.5 C 1335.5 -742.1 1350.2 -729.4 1340.4 -679.2 C 1330.6 -629.0 1292.1 -531.2 1258.2 -480.3 C 1224.3 -429.3 1201.4 -398.6 1136.9 -373.3 C 1072.5 -348.0 1014.1 -334.5 871.6 -328.3 C 729.1 -322.0 398.3 -350.6 281.8 -335.7 C 165.3 -320.8 209.0 -271.2 172.6 -239.0 C 173.5 -222.6 163.9 -210.1 175.3 -189.7 C 186.7 -169.3 205.5 -133.5 240.8 -116.7 C 276.1 -99.9 337.2 -90.1 387.2 -88.8 C 437.2 -87.5 481.1 -95.7 541.0 -108.7 C 600.9 -121.8 663.0 -133.7 746.8 -166.8 C 830.6 -200.0 968.8 -279.5 1043.6 -307.7 C 1118.5 -336.0 1155.9 -339.0 1195.8 -336.4 C 1235.6 -333.9 1261.9 -314.9 1282.6 -292.2 C 1303.3 -269.6 1318.5 -231.4 1320.0 -200.4 C 1321.6 -169.5 1310.8 -130.1 1291.9 -106.7 C 1273.0 -83.3 1236.7 -63.8 1206.9 -59.9 C 1177.0 -56.0 1137.5 -65.2 1112.8 -83.3 C 1088.1 -101.4 1067.0 -137.9 1058.9 -168.7 C 1050.7 -199.5 1053.4 -238.5 1063.9 -268.1 C 1074.4 -297.7 1102.5 -320.2 1121.8 -346.2" fill="none" stroke="#c0392b" stroke-width="26" stroke-linecap="round" stroke-linejoin="round"/>
</svg>
